<?xml version="1.0" encoding="UTF-8"?><svg id="Ebene_1" xmlns="http://www.w3.org/2000/svg" viewBox="0 0 375 85"><defs><style>.cls-1{fill:#008bd2;}.cls-1,.cls-2{stroke-width:0px;}.cls-2{fill:#e30613;}</style></defs><path class="cls-1" d="M94.11,77.78c-1.68-1.44-2.51-3.45-2.51-6.04v-16.26c0-.52.48-.78,1.43-.78h.29c.95,0,1.43.26,1.43.78v16.37c0,1.05.29,1.98.86,2.8s1.36,1.46,2.35,1.91c1,.45,2.13.68,3.39.68s2.39-.23,3.39-.7c1-.46,1.78-1.11,2.35-1.93.57-.82.86-1.74.86-2.76v-16.37c0-.52.47-.78,1.43-.78h.29c.95,0,1.43.26,1.43.78v16.26c0,2.59-.84,4.61-2.53,6.04s-4.09,2.16-7.2,2.16-5.54-.72-7.22-2.16ZM97.28,52.5c-.25-.13-.37-.33-.37-.59v-2c0-.26.12-.46.37-.59.25-.13.65-.2,1.2-.2s.94.07,1.19.2c.25.13.38.33.38.59v2c0,.26-.12.46-.38.59-.25.13-.65.2-1.19.2s-.95-.07-1.2-.2ZM102.99,52.5c-.25-.13-.37-.33-.37-.59v-2c0-.26.12-.46.37-.59.25-.13.65-.2,1.2-.2s.95.07,1.19.2c.25.13.37.33.37.59v2c0,.26-.12.46-.37.59-.25.13-.65.2-1.19.2s-.95-.07-1.2-.2Z"/><path class="cls-1" d="M119.8,77.27c-.14.93-.33,1.63-.57,2.1-.12.29-.44.43-.96.43h-.14c-.71,0-1.07-.26-1.07-.78v-25.32c0-.52.48-.78,1.43-.78h.14c.95,0,1.43.26,1.43.78v8.99c.76-.59,1.54-1.05,2.34-1.35.8-.31,1.72-.46,2.76-.46,1.43,0,2.69.37,3.78,1.11,1.09.74,1.94,1.82,2.55,3.25.61,1.43.91,3.15.91,5.17,0,1.85-.28,3.51-.84,4.96s-1.36,2.58-2.41,3.39c-1.05.81-2.27,1.21-3.67,1.21-2.07,0-3.96-.89-5.67-2.67ZM128.11,75.47c.76-1.25,1.14-3.03,1.14-5.33,0-2.14-.4-3.78-1.21-4.92-.81-1.14-2-1.71-3.57-1.71-.78,0-1.56.14-2.34.41-.77.27-1.47.67-2.09,1.19v9.77c.71.78,1.49,1.39,2.34,1.82s1.67.64,2.48.64c1.4,0,2.48-.62,3.24-1.87Z"/><path class="cls-1" d="M138.41,77.62c-1.43-1.54-2.14-3.91-2.14-7.1s.7-5.56,2.1-7.2c1.4-1.64,3.47-2.46,6.21-2.46,2.42,0,4.25.79,5.49,2.37,1.24,1.58,1.85,3.89,1.85,6.94,0,.21-.14.51-.43.89-.29.38-.54.57-.75.57h-11.27c.14,1.97.65,3.42,1.53,4.35s2.2,1.39,3.96,1.39c1,0,1.86-.12,2.58-.37.73-.25,1.33-.5,1.8-.75.48-.25.75-.38.82-.38.24,0,.51.24.8.71s.45.83.45,1.07c0,.29-.3.61-.89.98-.59.37-1.39.68-2.37.93-.99.25-2.04.37-3.16.37-2.97,0-5.17-.77-6.6-2.32ZM148.75,69.06c0-3.76-1.43-5.63-4.28-5.63-3.07,0-4.73,1.88-4.99,5.63h9.27Z"/><path class="cls-1" d="M156.74,79.01v-12.52c0-1.57-.07-2.69-.21-3.37-.14-.68-.21-1.05-.21-1.12,0-.29.23-.49.68-.62.45-.13.87-.2,1.25-.2.33,0,.58.17.73.52.15.34.27.71.36,1.09.08.38.14.63.16.75,1.26-1.78,2.64-2.67,4.14-2.67.69,0,1.21.11,1.55.34.34.23.52.58.52,1.05,0,.4-.07.83-.21,1.27-.14.44-.31.66-.5.66-.12,0-.35-.07-.7-.2-.35-.13-.77-.2-1.27-.2-.62,0-1.21.21-1.78.62s-1.07.93-1.5,1.55v13.05c0,.52-.48.78-1.43.78h-.14c-.95,0-1.43-.26-1.43-.78Z"/><path class="cls-1" d="M170.81,79.67c-.87-.25-1.56-.55-2.07-.91-.51-.36-.77-.68-.77-.96,0-.24.15-.59.45-1.07.3-.48.56-.71.8-.71.05,0,.27.13.68.39.4.26.91.5,1.52.71.61.21,1.28.32,2.02.32,1.14,0,2.01-.23,2.6-.68.59-.45.89-1.11.89-1.96s-.29-1.51-.87-1.96-1.48-.88-2.69-1.28c-1.02-.33-1.88-.7-2.57-1.09-.69-.39-1.26-.95-1.71-1.68-.45-.72-.68-1.66-.68-2.8,0-1,.26-1.89.77-2.67.51-.78,1.21-1.4,2.1-1.84.89-.44,1.91-.66,3.05-.66,1.21,0,2.3.16,3.26.46.96.31,1.44.67,1.44,1.07,0,.31-.14.71-.41,1.2s-.52.73-.73.73c-.07-.02-.39-.18-.95-.48-.56-.3-1.33-.45-2.3-.45s-1.69.21-2.28.64c-.59.43-.89,1.01-.89,1.75,0,.69.2,1.22.59,1.61.39.38,1.12.75,2.19,1.1,1.85.62,3.27,1.37,4.24,2.25.97.88,1.46,2.14,1.46,3.78,0,1.05-.28,1.99-.84,2.83-.56.84-1.32,1.51-2.28,2s-2.03.73-3.19.73c-1.02,0-1.97-.12-2.83-.38Z"/><path class="cls-1" d="M185.41,77.62c-1.43-1.54-2.14-3.91-2.14-7.1s.7-5.56,2.1-7.2c1.4-1.64,3.47-2.46,6.2-2.46,2.43,0,4.26.79,5.49,2.37s1.85,3.89,1.85,6.94c0,.21-.14.51-.43.89-.29.38-.54.57-.75.57h-11.27c.14,1.97.65,3.42,1.53,4.35s2.2,1.39,3.96,1.39c1,0,1.86-.12,2.59-.37.72-.25,1.32-.5,1.8-.75.47-.25.75-.38.82-.38.24,0,.5.24.8.71.3.48.45.83.45,1.07,0,.29-.3.61-.89.98-.59.37-1.38.68-2.37.93-.99.25-2.04.37-3.16.37-2.97,0-5.17-.77-6.6-2.32ZM195.75,69.06c0-3.76-1.43-5.63-4.28-5.63-3.07,0-4.73,1.88-4.99,5.63h9.27Z"/><path class="cls-1" d="M205.75,78.85c-.94-.72-1.41-2-1.41-3.83v-11.38h-1.78c-.24,0-.42-.08-.54-.25-.12-.17-.18-.44-.18-.82v-.43c0-.38.06-.65.18-.82.12-.17.3-.25.54-.25h1.78l.43-3.74c.07-.52.45-.78,1.14-.78h.36c.71,0,1.07.26,1.07.78v3.74h3c.26,0,.45.08.55.25s.16.44.16.82v.43c0,.38-.05.65-.16.82-.11.17-.29.25-.55.25h-3v11.09c0,1,.17,1.69.52,2.07s.81.57,1.41.57c.45,0,.79-.03,1.02-.09s.4-.09.52-.09c.21,0,.39.22.54.66.14.44.21.78.21,1.02,0,.71-.87,1.07-2.6,1.07-1.19,0-2.25-.36-3.19-1.09Z"/><path class="cls-1" d="M214.33,79.08c-.19-.43-.29-.82-.29-1.18,0-.17.04-.3.11-.39l10.45-13.87h-9.13c-.24,0-.42-.08-.53-.25-.12-.17-.18-.44-.18-.82v-.43c0-.38.06-.65.18-.82.12-.17.3-.25.53-.25h12.52c.17,0,.33.22.48.66.15.44.23.84.23,1.2,0,.14-.02.26-.07.36l-10.41,13.87h9.81c.26,0,.45.08.55.25.11.17.16.44.16.82v.43c0,.38-.05.65-.16.82-.11.17-.29.25-.55.25h-13.19c-.14,0-.31-.21-.5-.64Z"/><path class="cls-1" d="M233.58,77.62c-1.43-1.54-2.14-3.91-2.14-7.1s.7-5.56,2.1-7.2c1.4-1.64,3.47-2.46,6.2-2.46,2.42,0,4.25.79,5.49,2.37s1.85,3.89,1.85,6.94c0,.21-.14.51-.43.89-.29.38-.54.57-.75.57h-11.27c.14,1.97.65,3.42,1.53,4.35.88.93,2.2,1.39,3.96,1.39,1,0,1.86-.12,2.58-.37.72-.25,1.33-.5,1.8-.75.47-.25.75-.38.82-.38.24,0,.5.24.8.71.3.48.45.83.45,1.07,0,.29-.3.61-.89.98-.59.37-1.39.68-2.37.93-.99.25-2.04.37-3.16.37-2.97,0-5.17-.77-6.6-2.32ZM243.93,69.06c0-3.76-1.43-5.63-4.28-5.63-3.07,0-4.73,1.88-4.99,5.63h9.27Z"/><path class="cls-1" d="M251.91,79.01v-12.52c0-1.57-.07-2.69-.21-3.37-.14-.68-.21-1.05-.21-1.12,0-.29.22-.49.68-.62.45-.13.87-.2,1.25-.2.33,0,.58.17.73.52s.27.71.36,1.09.14.63.16.75c1.26-1.78,2.64-2.67,4.14-2.67.69,0,1.21.11,1.55.34.34.23.52.58.52,1.05,0,.4-.07.83-.21,1.27-.14.44-.31.66-.5.66-.12,0-.35-.07-.7-.2-.34-.13-.77-.2-1.27-.2-.62,0-1.21.21-1.78.62-.57.42-1.07.93-1.5,1.55v13.05c0,.52-.48.78-1.43.78h-.14c-.95,0-1.43-.26-1.43-.78Z"/><polygon class="cls-2" points="310.63 43.74 333.02 4.95 350.01 4.95 327.61 43.74 310.63 43.74"/><path class="cls-1" d="M88.81,35.48c.55.29,1.16.54,1.84.77.68.23,1.39.42,2.13.59.74.17,1.47.29,2.2.38.73.08,1.42.12,2.09.12,1.38,0,2.69-.14,3.93-.43,1.24-.29,2.34-.74,3.29-1.36.95-.62,1.71-1.43,2.27-2.43.56-1,.84-2.22.84-3.65,0-1.22-.18-2.26-.54-3.15-.36-.88-.85-1.63-1.47-2.25-.62-.62-1.36-1.14-2.22-1.56-.86-.42-1.79-.77-2.79-1.06l-1.36-.39c-.38-.1-.76-.21-1.14-.36-.38-.14-.73-.31-1.04-.5-.31-.19-.57-.41-.77-.66-.2-.25-.3-.54-.3-.88,0-.59.22-1.06.66-1.39s1.07-.5,1.88-.5c1.43,0,2.76.14,3.99.41,1.23.27,2.45.66,3.67,1.16v-5.65c-1.22-.48-2.46-.82-3.74-1.02-1.28-.2-2.54-.3-3.81-.3-1.48,0-2.82.15-4.02.47-1.2.31-2.23.78-3.09,1.41-.86.63-1.52,1.42-1.99,2.36-.46.94-.7,2.03-.7,3.27,0,1.33.21,2.46.64,3.36s1,1.67,1.7,2.29c.7.62,1.51,1.13,2.41,1.52.9.39,1.85.72,2.82.98l1.39.39c.69.19,1.31.45,1.84.79.54.33.8.82.8,1.47,0,.69-.27,1.24-.8,1.65-.54.41-1.31.61-2.31.61-.71,0-1.45-.07-2.2-.21-.75-.14-1.49-.32-2.22-.54-.73-.21-1.42-.46-2.09-.73-.67-.27-1.28-.54-1.82-.8v5.83Z"/><path class="cls-1" d="M123.53,26.25h-4.22c.1-.43.23-.99.41-1.68.18-.69.38-1.4.59-2.13.21-.73.42-1.42.62-2.07.2-.65.36-1.17.48-1.56.12.38.28.9.48,1.56.2.66.41,1.35.63,2.07.21.73.41,1.44.59,2.13.18.69.32,1.25.41,1.68M133.33,36.84c-.24-1.07-.57-2.34-.98-3.81-.42-1.47-.88-3.01-1.38-4.65s-1.03-3.29-1.59-4.97c-.56-1.68-1.1-3.26-1.63-4.75-.53-1.49-1.02-2.83-1.48-4.02-.46-1.19-.85-2.11-1.16-2.75h-7.37c-.31.67-.7,1.59-1.16,2.77-.46,1.18-.96,2.51-1.48,4.01-.52,1.49-1.07,3.07-1.63,4.75-.56,1.68-1.09,3.34-1.59,4.97s-.96,3.18-1.38,4.65-.75,2.74-.98,3.81h7.19c.14-.79.33-1.61.57-2.48.24-.87.5-1.79.79-2.77h6.72c.29.98.55,1.9.79,2.77.24.87.43,1.7.57,2.48h7.19Z"/><polygon class="cls-1" points="136.68 36.81 152.01 36.81 152.01 31.21 143.59 31.21 143.59 11.9 136.68 11.9 136.68 36.81"/><polygon class="cls-1" points="155.21 36.84 172.66 36.84 172.66 31.44 162.15 31.44 162.15 26.72 171.2 26.72 171.2 21.39 162.15 21.39 162.15 17.28 172.66 17.28 172.66 11.88 155.21 11.88 155.21 36.84"/><path class="cls-1" d="M175.95,35.48c.55.29,1.16.54,1.84.77.68.23,1.39.42,2.13.59.74.17,1.47.29,2.2.38.73.08,1.42.12,2.09.12,1.38,0,2.69-.14,3.93-.43,1.24-.29,2.34-.74,3.29-1.36.95-.62,1.71-1.43,2.27-2.43.56-1,.84-2.22.84-3.65,0-1.22-.18-2.26-.54-3.15-.36-.88-.85-1.63-1.47-2.25-.62-.62-1.36-1.14-2.22-1.56-.86-.42-1.79-.77-2.79-1.06l-1.36-.39c-.38-.1-.76-.21-1.14-.36-.38-.14-.73-.31-1.04-.5-.31-.19-.57-.41-.77-.66-.2-.25-.3-.54-.3-.88,0-.59.22-1.06.66-1.39.44-.33,1.07-.5,1.88-.5,1.43,0,2.76.14,3.99.41,1.23.27,2.45.66,3.67,1.16v-5.65c-1.22-.48-2.46-.82-3.74-1.02-1.28-.2-2.54-.3-3.81-.3-1.48,0-2.82.15-4.02.47-1.2.31-2.24.78-3.09,1.41-.86.63-1.52,1.42-1.99,2.36-.46.94-.7,2.03-.7,3.27,0,1.33.21,2.46.64,3.36s.99,1.67,1.7,2.29c.7.62,1.51,1.13,2.41,1.52.9.39,1.85.72,2.82.98l1.39.39c.69.19,1.31.45,1.84.79.54.33.8.82.8,1.47,0,.69-.27,1.24-.8,1.65-.54.41-1.31.61-2.31.61-.71,0-1.45-.07-2.2-.21-.75-.14-1.49-.32-2.22-.54-.73-.21-1.42-.46-2.09-.73-.67-.27-1.28-.54-1.82-.8v5.83Z"/><rect class="cls-1" x="198.87" y="11.88" width="6.94" height="24.96"/><path class="cls-1" d="M223.15,26.25h-4.22c.1-.43.23-.99.41-1.68.18-.69.38-1.4.59-2.13.21-.73.42-1.42.62-2.07.2-.65.36-1.17.48-1.56.12.38.28.9.48,1.56.2.66.41,1.35.63,2.07.21.73.41,1.44.59,2.13.18.69.32,1.25.41,1.68M232.95,36.84c-.24-1.07-.57-2.34-.98-3.81-.42-1.47-.88-3.01-1.38-4.65-.5-1.63-1.03-3.29-1.59-4.97-.56-1.68-1.1-3.26-1.63-4.75-.53-1.49-1.02-2.83-1.48-4.02-.46-1.19-.85-2.11-1.16-2.75h-7.37c-.31.67-.7,1.59-1.16,2.77-.46,1.18-.96,2.51-1.48,4.01-.52,1.49-1.07,3.07-1.63,4.75-.56,1.68-1.09,3.34-1.59,4.97-.5,1.63-.96,3.18-1.38,4.65-.42,1.47-.74,2.74-.98,3.81h7.19c.14-.79.33-1.61.57-2.48.24-.87.5-1.79.79-2.77h6.72c.29.98.55,1.9.79,2.77.24.87.43,1.7.57,2.48h7.19Z"/><path class="cls-1" d="M236.27,36.84h6.26v-14.87c.38.55.83,1.2,1.34,1.97.51.76,1.05,1.58,1.61,2.47.56.88,1.13,1.79,1.72,2.74.58.94,1.14,1.87,1.68,2.79.54.92,1.04,1.8,1.5,2.65.47.85.85,1.6,1.16,2.27h6.26V11.88h-6.26v13.73c-.24-.43-.57-.99-.98-1.7-.42-.7-.9-1.48-1.45-2.34-.55-.86-1.13-1.75-1.75-2.68-.62-.93-1.23-1.83-1.84-2.72-.61-.88-1.19-1.69-1.73-2.43-.55-.74-1.04-1.36-1.47-1.86h-6.04v24.96Z"/><polygon class="cls-1" points="263.34 36.84 280.79 36.84 280.79 31.44 270.28 31.44 270.28 26.72 279.32 26.72 279.32 21.39 270.28 21.39 270.28 17.28 280.79 17.28 280.79 11.88 263.34 11.88 263.34 36.84"/><path class="cls-1" d="M297.63,20.1c0,1.05-.33,1.85-.98,2.39-.66.55-1.48.88-2.49,1-.48.05-.88.1-1.2.16-.32.06-.61.15-.88.27v-7.01c.26-.05.48-.08.66-.09.18-.01.43-.02.77-.02,1.43,0,2.47.3,3.13.89.65.6.98,1.39.98,2.4M301.88,28.99c-.55-.77-1.09-1.47-1.61-2.09,1.26-.57,2.32-1.4,3.16-2.48.85-1.08,1.27-2.52,1.27-4.31,0-1.55-.24-2.87-.73-3.97-.49-1.1-1.2-1.99-2.13-2.66-.93-.68-2.09-1.17-3.47-1.48-1.38-.31-2.97-.46-4.76-.46-.5,0-1.1,0-1.79.02-.69.01-1.42.04-2.18.09-.76.05-1.53.11-2.31.18-.78.07-1.52.17-2.24.29v24.74h6.97v-4.94c0-.64.03-1.16.09-1.56.06-.39.14-.7.25-.91.11-.22.23-.36.36-.45.13-.08.27-.15.41-.2.07-.02.2-.06.39-.11.19-.05.31-.07.36-.07.31.43.67.97,1.09,1.61.42.64.83,1.33,1.25,2.07.42.74.82,1.5,1.22,2.29.39.79.74,1.54,1.05,2.25h7.69c-.41-.88-.84-1.78-1.31-2.7-.46-.92-.95-1.81-1.47-2.68-.51-.87-1.04-1.69-1.59-2.47"/><polygon class="cls-1" points="352.89 4.95 369.87 4.95 347.48 43.74 330.49 43.74 352.89 4.95"/><path class="cls-1" d="M30.8,33.94l-2.79-8.31c-.02-.06-.06-.1-.13-.1s-.11.04-.13.1l-2.76,8.28,5.82.02h0ZM24.01,37l-1.32,3.89c-.29.87-1.11,1.45-2.03,1.45-1.49,0-2.52-1.49-2-2.88,0,0,6.7-17.89,6.76-17.89h.01c1.35-1.58,3.78-1.57,5.13,0,.06,0,6.73,17.9,6.73,17.9.52,1.4-.52,2.88-2,2.88h-.24c-.92,0-1.73-.58-2.03-1.45l-1.28-3.8c-.02-.06-.07-.1-.13-.1h-7.6Z"/><path class="cls-1" d="M43.1,54.79c.56.87,1.15,1.7,1.77,2.49.46.58.33,1.43-.28,1.84-2.47,1.69-5.36,3.04-8.66,4.06-.81.25-1.9,1.49-1.36,2.86.57,1.45,2.41,1.09,2.99.89,3.88-1.33,7.25-3.05,10.17-5.25.46-.35,1.1-.34,1.56.02,2.87,2.27,6.31,4.04,10.44,5.22.55.16,2.27.26,2.86-1.04.59-1.29-.34-2.64-1.19-2.88-3.31-.94-6.19-2.3-8.67-4.01-.62-.42-.73-1.29-.25-1.86,2.41-2.9,4.36-6.33,5.84-10.43h3.71c.7,0,1.28-.57,1.28-1.28v-1.8c0-.71-.57-1.28-1.28-1.28h-11.19v4.35h3.18c-1.12,2.97-2.55,5.52-4.3,7.7-.5.63-1.46.64-1.97.03-.25-.3-.5-.61-.73-.92-1.17.75-2.52,1.19-3.91,1.29M14.71,13.25c-3,0-5.43,2.43-5.43,5.43v26.54c0,3,2.43,5.43,5.43,5.43h26.54c3,0,5.43-2.43,5.43-5.43v-26.54c0-3-2.43-5.43-5.43-5.43H14.71ZM5.13,18.68c0-5.29,4.29-9.59,9.59-9.59h26.54c5.29,0,9.59,4.29,9.59,9.59v11.19h11.19c5.29,0,9.59,4.29,9.59,9.59v26.54c0,5.3-4.29,9.59-9.59,9.59h-26.54c-5.3,0-9.59-4.29-9.59-9.59v-11.19h-11.19c-5.3,0-9.59-4.29-9.59-9.59v-26.54Z"/></svg>